<?xml version="1.0" encoding="utf-8"?>
<!-- Generator: Adobe Illustrator 22.0.1, SVG Export Plug-In . SVG Version: 6.00 Build 0)  -->
<svg version="1.1" id="Layer_1" xmlns="http://www.w3.org/2000/svg" xmlns:xlink="http://www.w3.org/1999/xlink" x="0px" y="0px"
	 viewBox="0 0 275 275" style="enable-background:new 0 0 275 275;" xml:space="preserve">
<style type="text/css">
	.st0{fill:#FFFFFF;}
</style>
<g>
	<path class="st0" d="M252.2,80.2L252.2,80.2c-11.9-24.6-36-48.8-61.1-59.2c-39.8-20-95-13.3-129.7,13.3
		C18.3,67.2,0.3,119.3,14.1,171.9c9.5,40.7,48.5,79.1,88.7,89.2c51,13,103.7-2.9,136.6-45.4C268.8,179.8,273.8,121.4,252.2,80.2z
		 M230,213.3c-29.7,34.2-70.6,49.5-115.9,41.4c-26.9-6.8-53.8-18.7-71-43.9C15.1,177.4,10,121,30.8,82.7
		c22.7-43.4,67.6-68,115.9-65.1c29.3,3,55,14.8,76.9,35.5c9.4,10.8,17.2,22.3,23.2,34.5l0,0C265.6,126.8,258.5,180.9,230,213.3z"/>
	<path class="st0" d="M225.1,61.5h-3c-1.4-0.7-3.9-1-3.9-3c0.5-0.8,1.4-0.8,2-1.5c-2.2-1.4-0.9-4.1-2-5.9c-3.6-1.1-0.6,3.2-3,3.9
		c-3.7-0.5-6.6,1.2-9.4-1.5l1-1c-0.3-0.4-1.4-1.2-2.5-1c-0.6,4.5-5,1.6-8.4,2.5c-3-0.7-1-2.9-1.5-4.9c-0.9,0.1-1.7-0.2-2.5-0.5
		c-0.3,6.1-7,3.2-10.8,3.9c-3.9-1.8-12.4,2.2-11.8-5.4c-2.8-0.6-4.6,0.9-6.4,2.5c-7.9-4.6-9.6,8.5-16.3,3.9c-0.4-2.9,0.5-5.2,2-7.4
		c3.8-4-0.6-8.4-1.5-12.3v0c-3.7-8.6-14.7-11.8-22.7-7.4c-8.8,4.3-9.7,14.2-8.9,22.7c-0.5,0.9-1.6,0.3-2.5,0.5
		c-7.1,5.1-11.7,12.9-16.8,19.7c-0.6,17.2-4.1,33.1-8.4,48.8c0.7,0.6,1.9,0.1,2.5,1c-4.1,4.8,1.4,9.2,1,14.3
		c-5.5,16.6-11,33.2-14.3,50.8c-1.8,4.2-6.3,3.9-9.4,5.9c-4.3,6.6-11.1,12.1-12.8,19.7c2.8,5.6,1.9,14,8.4,16.8
		c3.4,6.3,9.2,0.6,13.8,1c2.6-4.4-0.6-8.9-1-13.3c4.5-1.9,10.5-0.3,15.3-1.5c3.6-7.9,6.5-16.1,10.8-23.7c2.9-12.5,7.4-24.6,13.3-36
		c1.2-0.9-0.4-2.9,1.5-3.5c8.1,2,12,10.9,17.3,16.8c2.2,6.1,9.6,10.1,12.8,15.8c3.1,11.7,5.5,23.7,9.4,35c0.8,6.2-2.2,12.1,3.5,16.3
		c7,4.5,14.5,12,23.7,6.9V234c-2.6-7.8-10.5-13.4-9.4-22.7c1.8-12.6-5.3-21.4-3.4-34c-4.8-4.8-6.4-10.8-10.8-15.8
		c-1.4-3.5-6-5.7-5.9-9.9c1-0.8,1.8-2.2,3-2.5c0-5.8-5.2-9.8-8.4-13.8c-2.9-4.6-7.9-8.4-10.4-13.3l-3.9,1c-0.3-3.1-1.4-5.9-1-9.4
		c0.3-2.2,2.6-3.6,4.9-3c1.2-4.5,0.6-9.7,1.5-14.3c1.2-2.4,3.9-1.5,5.9-2c3.9,1.6,7.5-0.6,10.8-2L157,93c1.2,0.5,1.6-1,2.5-1.5
		c6.8,2.2,8.5-6.8,13.3-9.4l9.4,2c1.5-0.1,2.4-0.8,2-2.5c0.9-2.6-1.9-5.3,0.5-6.9c3.2,7.7,5.2,15.8,10.4,22.7
		c1.5-0.3,2.9-1.1,3.9-2.5c-4.1-7-8.2-14.5-7.9-22.7c1.9,0.3,3.1,2.2,4.9,2.5c0.9-1.1,1.9-3.6,3.9-3c2.9-12.7,17.1-6.3,25.6-9.4
		C225.3,62.2,224.9,61.9,225.1,61.5z M148.2,73.3c-1.9-0.3-4-0.9-4.9-2.5l7.9-6.4c4.2-0.4,7.9,0.6,11.8,1h0
		C160.2,71.1,151.1,66,148.2,73.3z"/>
</g>
</svg>
