<?xml version="1.0" encoding="utf-8"?>
<!-- Generator: Adobe Illustrator 22.0.1, SVG Export Plug-In . SVG Version: 6.00 Build 0)  -->
<svg version="1.1" id="Layer_1" xmlns="http://www.w3.org/2000/svg" xmlns:xlink="http://www.w3.org/1999/xlink" x="0px" y="0px"
	 viewBox="0 0 275 275" style="enable-background:new 0 0 275 275;" xml:space="preserve">
<style type="text/css">
	.st0{fill:#FFFFFF;}
</style>
<g>
	<g>
		<path class="st0" d="M265.5,9.5h-31.8l-13.2,6.6l-13.2-6.6H145L130,17H88.5l-15-7.5h-64V130l7.5,15v41.5l-7.5,15v64h128l13.2-6.6
			l13.2,6.6h101.5V164l-6.6-13.2l6.6-13.2V9.5z M77,220.5L54.5,198v-45l67.5,67.5H77z M213,220.5h-30l-19.4-22.8l-4-16.3l-15.4-6.6
			l-6.6-7.8l-83-97.5l15-15l68,51.1l83,62.4L213,220.5z M220.5,122L153,54.5h45L220.5,77V122z"/>
	</g>
</g>
</svg>
