<?xml version="1.0" encoding="utf-8"?>
<!-- Generator: Adobe Illustrator 22.0.1, SVG Export Plug-In . SVG Version: 6.00 Build 0)  -->
<svg version="1.1" id="Layer_1" xmlns="http://www.w3.org/2000/svg" xmlns:xlink="http://www.w3.org/1999/xlink" x="0px" y="0px"
	 viewBox="0 0 275 275" style="enable-background:new 0 0 275 275;" xml:space="preserve">
<style type="text/css">
	.st0{fill:#FFFFFF;}
</style>
<path class="st0" d="M27.6,9.5l29.8,48.3V217l-31.7,48.5h185.9l48.7-64H132.1V9.5H27.6z M65.8,30.8h44.9v192h106.5L201,244.2H65.2
	l13.6-20.8V51.8l-1.6-2.6L65.8,30.8L65.8,30.8z M153.4,32.9v21.8c42.7,9.7,74.7,47.9,74.7,93.5c0,10.9-1.9,21.7-5.5,32h22.4
	c2.9-10.2,4.5-20.9,4.5-32C249.4,90.8,207.9,42.9,153.4,32.9z M36.1,80.9c-17.4,24.6-24.5,55-20,84.9c2.7,17.9,9.6,34.9,20,49.7
	C36.1,215.4,36.1,80.9,36.1,80.9z"/>
</svg>
