<?xml version="1.0" encoding="utf-8"?>
<!-- Generator: Adobe Illustrator 22.0.1, SVG Export Plug-In . SVG Version: 6.00 Build 0)  -->
<svg version="1.1" id="Layer_1" xmlns="http://www.w3.org/2000/svg" xmlns:xlink="http://www.w3.org/1999/xlink" x="0px" y="0px"
	 viewBox="0 0 275 275" style="enable-background:new 0 0 275 275;" xml:space="preserve">
<style type="text/css">
	.st0{fill:#FFFFFF;}
</style>
<path id="surface1" class="st0" d="M137.5,9.5c-70.6,0-128,57.4-128,128s57.4,128,128,128s128-57.4,128-128S208.1,9.5,137.5,9.5z
	 M137.5,20.6c28,0,53.7,9.9,73.9,26.4L196.9,64c-16.8-13.6-37.8-21.1-59.4-21.1c-22.5,0-43.2,7.9-59.4,21.1L63.6,47
	C84.4,29.9,110.6,20.6,137.5,20.6z M209.7,179.4l-45.3-43.1l-21.3-50v84.6l44,40.6c-14.7,9.9-31.9,15.1-49.6,15.1
	c-18.4,0-35.4-5.6-49.6-15.1l44-40.6V86.3l-21.3,50l-45.3,43.1C57.9,166.7,54,152.2,54,137.5c0-46,37.5-83.5,83.5-83.5
	S221,91.5,221,137.5C221,152.3,217.1,166.7,209.7,179.4z"/>
</svg>
